<svg viewBox="0 0 2189.24 2018.85" xmlns="http://www.w3.org/2000/svg" data-name="Layer 2" id="b">
  <defs>
    <style>
      .d {
        fill: #3a4195;
      }

      .e {
        fill: #d87231;
      }

      .f {
        fill: #8761a5;
      }

      .g {
        fill: #f2ca30;
      }

      .h {
        fill: #507bbc;
      }

      .i {
        fill: #d04b4c;
      }

      .j {
        fill: #39a558;
      }
    </style>
  </defs>
  <g data-name="Basic" id="c">
    <g>
      <path d="M869.5,81.39l-291.95,403.4,245.92,428.84-281.05,49.67-184.14-261.67-9.69,273.78-251.97,9.69L116,57.16l282.26,15.75-21.81,273.78L564.23,57.16l305.28,24.23Z" class="i"></path>
      <path d="M1583.18,275.21c0,29.88-1.41,62.79-4.24,98.73-2.83,35.94-7.47,73.09-13.93,111.45-6.46,38.36-14.84,77.23-25.14,116.6-10.3,39.37-23.12,77.23-38.46,113.57-15.34,36.34-33.21,70.36-53.61,102.06-20.39,31.7-43.81,59.36-70.26,82.98-26.45,23.62-56.03,42.2-88.74,55.73-32.71,13.53-69.05,20.29-109.03,20.29-46.84,0-87.52-7.57-122.05-22.71-34.53-15.14-64.1-35.53-88.74-61.18-24.63-25.64-44.82-55.52-60.57-89.64-15.75-34.12-28.06-70.26-36.95-108.42-8.88-38.16-15.04-77.13-18.47-116.9-3.43-39.77-5.15-78.04-5.15-114.78,0-56.53,2.83-112.96,8.48-169.3,5.65-56.33,13.73-112.56,24.23-168.69l283.47,10.9c-10.9,63.4-20.29,127.1-28.17,191.1-7.87,64-11.81,128.31-11.81,192.92,0,6.86.3,17.06.91,30.59.61,13.53,1.72,28.67,3.33,45.43,1.62,16.76,3.94,33.92,6.97,51.49,3.03,17.57,7.17,33.62,12.42,48.15,5.25,14.54,11.61,26.45,19.08,35.74,7.47,9.29,16.25,13.93,26.35,13.93,11.71,0,22.21-5.55,31.5-16.66,9.29-11.1,17.46-25.94,24.53-44.52,7.07-18.58,13.22-39.98,18.47-64.21,5.25-24.23,9.69-49.47,13.33-75.71,3.63-26.25,6.56-52.49,8.78-78.74,2.22-26.25,4.04-50.68,5.45-73.29,1.41-22.61,2.32-42.6,2.73-59.97.4-17.36.61-30.29.61-38.77,0-31.5-.5-62.89-1.51-94.19-1.01-31.29-2.52-62.49-4.54-93.58h283.47c4.85,55.73,7.27,112.26,7.27,169.6Z" class="g"></path>
      <path d="M2189.24,603.51l-25.44,268.93-510.01,39.98c2.42-140.93,5.15-281.05,8.18-420.36,3.03-139.31,6.76-279.43,11.21-420.36h314.97c-9.29,88.43-18.17,176.77-26.65,265-8.48,88.23-14.54,177.17-18.17,266.81,18.98.81,37.76,1.21,56.33,1.21h56.33c22.61,0,44.82-.2,66.63-.61,21.81-.4,44.01-.61,66.63-.61Z" class="h"></path>
      <path d="M981.16,1115.13l-291.95,403.4,245.92,428.84-281.05,49.67-184.14-261.67-9.69,273.78-251.97,9.69,19.38-927.95,282.26,15.75-21.81,273.78,187.77-289.53,305.28,24.23Z" class="j"></path>
      <path d="M1309.85,1129.67l-66.63,824.98-255.61,13.33v-821.34l322.24-16.96Z" class="e"></path>
      <path d="M2069.72,1501.57c0,56.53-7.27,107.51-21.81,152.94-14.54,45.43-34.83,85.81-60.87,121.14-26.05,35.33-57.04,65.72-92.98,91.16-35.94,25.44-75.31,46.34-118.11,62.69-42.8,16.35-88.33,28.47-136.59,36.34-48.25,7.87-97.82,11.81-148.7,11.81-18.98,0-37.55-.5-55.73-1.51s-36.75-2.52-55.73-4.54l16.96-812.86c44.42-14.13,90.15-24.13,137.19-29.98,47.04-5.86,93.78-8.78,140.22-8.78,57.74,0,110.84,8.68,159.3,26.05,48.46,17.36,90.25,42.4,125.38,75.11,35.13,32.71,62.49,72.69,82.07,119.93,19.58,47.25,29.38,100.75,29.38,160.51ZM1821.38,1540.34c.4-21.81-1.92-42.8-6.97-62.99-5.05-20.19-13.33-38.06-24.83-53.61-11.51-15.55-26.15-28.06-43.91-37.55-17.77-9.49-38.97-14.64-63.6-15.45l-24.23,375.54c24.23-3.63,46.24-11.61,66.02-23.93,19.79-12.32,36.85-27.46,51.18-45.43,14.34-17.97,25.44-37.96,33.31-59.97,7.87-22.01,12.22-44.72,13.02-68.14v-8.48Z" class="f"></path>
    </g>
    <g>
      <path d="M182.63,393.38c-29.54,0-59.08-1.79-89.08-2.24-4.92,0-18.8-.9-22.83-4.03-3.13-3.13-4.48-8.06-4.48-12.53-3.13-63.11.45-126.68.45-189.79-.45-.45-.45-.9-.45-1.34-.45-1.34.45-2.69,0-4.03-2.69-15.22-1.34-30.89-1.79-46.1,0-8.95-.9-17.9-1.34-26.86H12.09c-16.11,0-16.11-26.86,0-26.86h49.24v-5.82c0-3.58.9-7.61,3.58-9.85,2.69-1.79,6.27-1.79,9.4-1.79,17.46.45,35.36,1.79,52.82,1.34,15.67,0,31.78-1.34,47.9-.45,1.79,0,5.82.45,8.5,1.34.45-15.67.9-31.33,1.34-47,.45-2.69.9-5.82,2.69-7.16-.45-3.58,2.69-5.82,6.27-6.27,8.5-1.34,27.75-2.69,33.57,3.58,4.48,4.48,4.03,21.93,4.03,27.75,0,8.95.45,18.35.45,27.3,4.03-.45,8.5-.9,12.53-.9,32.23-.45,64.46.9,96.69,1.34,1.34,0,2.69.45,3.58.45,3.13.45,4.03,2.69,3.58,4.92.45,2.24.45,8.06,0,11.64,35.81,0,57.74-.45,57.74-.45,17.46,0,17.46,26.86,0,26.86,0,0-21.93.45-58.64.45,0,14.32.45,28.65,1.79,42.97,3.58,41.63,6.71,83.26,6.27,124.89-.45,31.33-2.69,63.56,3.13,94,.45,3.13.9,7.16-.9,9.85-2.69,5.37-9.85,8.5-16.11,9.4-6.71.45-13.43,0-19.7-.45-12.53-.9-24.62,2.69-37.15,3.58-13.43.45-26.86-.45-40.73-.45-20.14.9-40.73,3.13-61.32,2.69ZM281.1,305.64c-.9-16.56-1.34-33.12-7.16-48.34-2.69-8.06-12.53-16.56-19.25-22.38,9.4-6.71,17.01-16.11,19.7-26.41,3.58-11.64,9.85-45.66,5.82-56.85-1.79-5.37-5.37-8.5-11.19-8.95-6.71-.9-31.78-2.24-38.5.45-2.24.9-4.92,2.24-5.82,4.48-1.34,2.69-.9,5.82-.9,8.95.9,15.22,2.69,54.16-11.19,62.22-3.13,2.24-18.8,3.58-23.28,3.13-.45-8.06,2.69-63.11,1.79-71.17-.45-2.69-.9-6.27-3.13-8.5-1.79-1.79-5.37-2.69-8.5-2.69-12.09-.9-24.62-1.34-36.7.45-4.48.9-9.85,3.58-11.64,7.61-1.79,4.92,0,23.72.45,28.65,1.34,18.35.45,123.99,3.13,142.34,0,1.79.45,3.58,1.34,4.92,4.03,6.27,21.49,5.37,29.09,4.48,3.58,0,17.9-2.24,21.04-3.13,1.79-.45,3.58-1.34,4.48-2.69,1.34-2.69.9-5.82.9-8.95-1.34-16.56-2.24-45.21-2.69-61.77,29.1,0,28.2,8.5,31.33,21.04.45,3.58,3.58,29.1,3.58,32.23.9,10.29-1.34,21.49,8.95,24.17,8.06,1.79,34.02-.45,41.63-2.69,7.16-2.69,7.16-13.88,6.71-20.59Z" class="d"></path>
      <path d="M688.03,401.43c-29.54-4.03-59.09-6.27-88.63-10.3-20.14-3.13-40.29-8.06-60.43-11.64-13.43-2.24-26.86-3.13-40.29-5.82-12.09-2.24-23.72-7.61-36.26-8.5-6.27-.45-12.98-.9-19.25-2.24-6.27-1.79-12.98-5.82-14.77-11.64-1.34-3.13-.45-6.71.45-9.85,10.29-29.54,12.53-61.32,16.56-92.66,5.37-41.18,14.77-81.91,24.17-122.65,1.34-6.27,2.69-12.98,4.03-19.25-37.15,0-59.53-.45-59.53-.45-17.46,0-17.46-26.86,0-26.86,0,0,24.17.45,64.01.45.9-6.71,1.79-13.43,2.24-20.14,0-2.69.45-11.19,1.79-14.32,0-2.24,1.34-4.48,4.03-4.48,1.34,0,2.69,0,3.58.45,32.23,4.03,64.01,7.16,95.79,12.09,4.48.45,8.5,1.79,12.98,2.69,1.34-8.95,2.69-17.46,4.03-26.41.9-7.61,2.69-25.07,9.85-28.2,8.06-3.13,17.46-1.34,25.51.45,5.82,1.34,12.98,3.58,11.19,9.4,1.79,1.79,1.79,4.92,1.79,7.61-1.79,15.67-3.58,30.89-5.37,46.55,2.69-.9,6.71-.9,8.95-.9,16.11,1.79,31.78,5.37,47.45,7.61,17.46,2.69,34.91,4.03,51.92,6.27,2.24,0,4.03.45,6.27.9h48.79c15.22,0,15.22,26.86,0,26.86h-46.1c-2.69,14.77-6.71,29.1-8.95,43.87-2.69,15.22-4.03,30.89-8.5,45.66-.45,1.34,0,2.69-.45,4.03,0,.45-.45.9-.9.9-8.95,62.67-14.77,126.23-26.41,188-.9,4.48-2.69,9.4-6.71,11.64-4.03,2.69-17.9,1.34-22.83.9ZM651.33,311.01c4.92-4.48,8.06-10.74,10.74-17.01,5.82-14.32,7.61-29.54,9.4-44.76,1.79-15.22,16.11-82.36,17.9-97.58.45-6.71-2.69-8.95-25.51-12.09-18.35-2.24-21.49-4.03-23.72,2.69-2.69,17.01-13.88,85.94-18.35,102.06-1.79,5.82-4.03,11.64-7.61,16.56-8.06,10.3-29.1,9.4-33.57-2.24-4.48-10.74,12.53-100.27,14.77-111.46.9-4.48,1.79-8.5,3.58-12.53.45-6.27-5.82-7.16-9.85-8.06-10.74-2.69-25.51-5.82-36.26-6.27-2.69-.45-5.82.9-7.16,4.48-3.58,17.46-17.9,86.39-20.59,103.85-2.69,17.9-5.82,36.7-1.79,54.16,1.79,7.61,6.27,14.77,12.53,19.7,8.5,7.16,20.14,10.3,30.89,12.53,14.32,2.69,20.59,4.48,34.91,5.82,9.4,1.34,18.8,2.24,28.2,1.34,8.06-.9,15.67-5.37,21.49-11.19Z" class="d"></path>
      <path d="M972.54,393.38c-29.54,0-59.08-1.79-89.08-2.24-4.92,0-18.8-.9-22.83-4.03-3.13-3.13-4.48-8.06-4.48-12.53-3.13-63.11.45-126.68.45-189.79-.45-.45-.45-.9-.45-1.34-.45-1.34.45-2.69,0-4.03-2.69-15.22-1.34-30.89-1.79-46.1,0-8.95-.9-17.9-1.34-26.86h-51.03c-16.11,0-16.11-26.86,0-26.86h49.24v-5.82c0-3.58.9-7.61,3.58-9.85,2.69-1.79,6.27-1.79,9.4-1.79,17.46.45,35.36,1.79,52.82,1.34,15.67,0,31.78-1.34,47.9-.45,1.79,0,5.82.45,8.06,1.34.45-15.67,1.34-31.78,1.79-47.9.45-2.69.9-5.37,2.69-6.71-.9-5.82,7.16-6.27,12.53-6.71,8.5-.45,17.9-.9,25.51,2.69,5.82,3.13,5.82,16.11,5.82,22.83,0,11.19,0,22.38.45,34.02,4.03-.45,8.5-.9,12.53-.9,32.23-.45,64.46.9,96.69,1.34,1.34,0,2.69.45,3.58.45,3.13.45,4.03,2.69,3.58,4.92.45,2.24.45,8.06,0,11.64,35.81,0,57.74-.45,57.74-.45,17.46,0,17.46,26.86,0,26.86,0,0-21.93.45-58.64.45,0,14.32.45,28.65,1.79,42.97,3.58,41.63,6.71,83.26,6.27,124.89-.45,31.33-2.69,63.56,3.13,94,.45,3.13.9,7.16-.9,9.85-2.69,5.37-9.85,8.5-16.11,9.4-6.71.45-13.43,0-19.7-.45-12.53-.9-24.62,2.69-37.15,3.58-13.43.45-26.86-.45-40.73-.45-20.14.9-40.73,3.13-61.32,2.69ZM977.91,305.2c-1.79-27.3-3.58-54.16-4.48-81.02,12.09,31.33,23.28,58.64,37.15,89.52,2.24,5.37,4.48,7.16,9.85,7.16,8.06,0,16.11,0,24.17.45,3.58,0,14.32,0,17.01-2.24,3.58-2.69,4.03-8.5,4.48-12.98,2.24-23.28,7.61-143.69,5.82-167.41-.45-9.85-14.77-5.82-24.62-6.27-4.48,0-18.35-1.34-21.93,1.34-1.79,1.79-1.79,5.37-1.79,8.06.45,12.09-.45,92.21.45,104.29-8.5-21.04-16.11-42.97-23.28-64.9-2.24-6.27-10.3-32.68-14.32-38.05-4.03-4.03-10.3-4.92-16.11-4.92-4.48,0-32.23,0-37.15.45-5.37.45-8.06,3.13-8.5,8.95-1.34,17.9,1.34,114.59,1.79,132.49.45,6.71-2.24,34.02.45,40.29,2.24,4.92,13.43,2.69,18.35,3.13,5.82.45,25.07,1.79,29.99-.9,4.48-2.69,3.13-12.53,2.69-17.46Z" class="d"></path>
      <path d="M1477.95,401.43c-29.54-4.03-59.09-6.27-88.63-10.3-20.14-3.13-40.29-8.06-60.43-11.64-13.43-2.24-26.86-3.13-40.29-5.82-12.09-2.24-23.72-7.61-36.26-8.5-6.27-.45-12.98-.9-19.25-2.24-6.27-1.79-12.98-5.82-14.77-11.64-1.34-3.13-.45-6.71.45-9.85,10.29-29.54,12.53-61.32,16.56-92.66,5.37-41.18,14.77-81.91,24.17-122.65,1.34-6.27,2.69-12.98,4.03-19.25-37.15,0-59.53-.45-59.53-.45-17.46,0-17.46-26.86,0-26.86,0,0,24.17.45,64.01.45.9-6.71,1.79-13.43,2.24-20.14,0-2.69.45-11.19,1.79-14.32,0-2.24,1.34-4.48,4.03-4.48,1.34,0,2.69,0,3.58.45,32.23,4.03,64.01,7.16,95.79,12.09,4.48.45,8.5,1.79,12.98,2.69,1.34-8.95,2.69-17.46,4.03-26.41.9-7.61,2.69-25.07,9.85-28.2,8.06-3.13,17.46-1.34,25.51.45,5.82,1.34,12.98,3.58,11.19,9.4,1.79,1.79,1.79,4.92,1.79,7.61-1.79,15.67-3.13,30.89-4.92,46.1,2.69-.45,6.71-.45,8.5-.45,16.11,1.79,31.78,5.37,47.45,7.61,17.46,2.69,34.91,4.03,51.92,6.27,2.24,0,4.03.45,6.27.9h48.79c15.22,0,15.22,26.86,0,26.86h-46.1c-2.69,14.77-6.71,29.1-8.95,43.87-2.69,15.22-4.03,30.89-8.5,45.66-.45,1.34,0,2.69-.45,4.03,0,.45-.45.9-.9.9-8.95,62.67-14.77,126.23-26.41,188-.9,4.48-2.69,9.4-6.71,11.64-4.03,2.69-17.9,1.34-22.83.9ZM1448.85,275.65c15.22-20.59,22.38-47.45,20.59-72.96-1.34-22.83-10.74-48.79-33.12-61.77-10.74-6.71-23.72-9.4-36.26-12.09-11.19-1.79-22.83-3.58-34.47-5.37-5.82-.9-23.72-3.58-29.09-.45-4.48,2.69-5.82,15.22-6.71,20.14-4.48,21.93-29.1,130.7-28.65,153.53,0,7.61,12.09,9.4,20.14,10.74,14.77,2.24,29.1,4.48,43.87,5.82,15.67,1.34,32.68-.45,46.55-6.71,15.22-6.71,27.75-18.35,37.15-30.89ZM1377.68,170.91c10.29.9,21.49,3.58,28.65,10.29,11.64,11.19,13.43,30.89,8.06,45.21-4.92,12.98-19.25,25.96-34.47,26.86-5.82.45-11.64.45-17.46,0,1.79-10.29,12.98-72.51,15.22-82.36Z" class="d"></path>
      <path d="M1762.46,393.38c-29.54,0-59.08-1.79-89.08-2.24-4.92,0-18.8-.9-22.83-4.03-3.13-3.13-4.48-8.06-4.48-12.53-3.13-63.11.45-126.68.45-189.79-.45-.45-.45-.9-.45-1.34-.45-1.34.45-2.69,0-4.03-2.69-15.22-1.34-30.89-1.79-46.1,0-8.95-.9-17.9-1.34-26.86h-51.03c-16.11,0-16.11-26.86,0-26.86h49.24v-5.82c0-3.58.9-7.61,3.58-9.85,2.69-1.79,6.27-1.79,9.4-1.79,17.46.45,35.36,1.79,52.82,1.34,15.67,0,31.78-1.34,47.9-.45,1.79,0,5.37.45,8.06,1.34.45-14.77,1.34-29.99,1.79-44.76,0-3.58,0-8.06,2.69-10.3-.45-2.69,2.24-4.92,5.37-5.37,8.5-1.34,28.65-2.69,34.47,3.58,3.58,3.13,4.03,16.11,4.03,21.04,0,11.19.45,22.38.45,34.02,4.03-.45,8.5-.9,12.53-.9,32.23-.45,64.46.9,96.69,1.34,1.34,0,2.69.45,3.58.45,3.13.45,4.03,2.69,3.58,4.92.45,2.24.45,8.06,0,11.64,35.81,0,57.74-.45,57.74-.45,17.46,0,17.46,26.86,0,26.86,0,0-21.93.45-58.64.45,0,14.32.45,28.65,1.79,42.97,3.58,41.63,6.71,83.26,6.27,124.89-.45,31.33-2.69,63.56,3.13,94,.45,3.13.9,7.16-.9,9.85-2.69,5.37-9.85,8.5-16.11,9.4-6.71.45-13.43,0-19.7-.45-12.53-.9-24.62,2.69-37.15,3.58-13.43.45-26.86-.45-40.73-.45-20.14.9-40.73,3.13-61.32,2.69ZM1837.66,324.44c3.58-.9,7.16-2.24,8.95-5.37,3.13-5.37.9-26.86.9-33.12-.45-5.37.45-13.43-3.58-16.11-4.48-3.13-20.59-1.34-25.96-1.34h-37.15c-.45-7.61,0-15.67.45-23.72,17.46,0,35.36-.45,52.82-2.24,5.82-.45,8.06-.9,8.5-7.16.45-4.48-.45-22.83-1.34-27.3-.9-4.48-2.24-7.61-10.3-7.61-16.11,0-31.78,2.24-47.9,1.79-2.24,0-4.92,0-5.37-2.24-.9-3.13-2.24-10.29-.45-13.43,1.79-1.79,7.61-2.24,9.85-2.24,8.95.45,48.34.9,56.4-2.24,3.13-.9,4.03-5.37,4.48-8.5.45-5.37.45-28.2.45-33.57,0-8.5-5.82-8.06-13.43-7.16-23.28,2.24-79.68,0-103.4,2.24-3.13,0-6.71,2.69-7.16,5.37-.9,4.48.45,8.5.9,12.98.9,14.32,1.79,95.79,1.34,110.56,0,9.85-2.24,46.55,2.24,55.5,2.24,4.03,7.61,5.37,12.53,5.82,18.35,1.34,37.15.45,55.95-.45,5.82,0,34.91.45,40.29-.45Z" class="d"></path>
    </g>
    <g>
      <path d="M278.61,1472.73c-29.54,0-59.08-1.79-89.08-2.24-4.92,0-18.8-.9-22.83-4.03-3.13-3.13-4.48-8.06-4.48-12.53-3.13-63.11.45-126.68.45-189.79-.45-.45-.45-.9-.45-1.34-.45-1.34.45-2.69,0-4.03-2.69-15.22-1.34-30.89-1.79-46.1,0-8.95-.9-17.9-1.34-26.86h-51.03c-16.11,0-16.11-26.86,0-26.86h49.24v-5.82c0-3.58.9-7.61,3.58-9.85,2.69-1.79,6.27-1.79,9.4-1.79,17.46.45,35.36,1.79,52.82,1.34,15.67,0,31.78-1.34,47.9-.45,1.79,0,5.82.45,8.5,1.34.45-15.67.9-31.33,1.34-47,.45-2.69.9-5.82,2.69-7.16-.45-3.58,2.69-5.82,6.27-6.27,8.5-1.34,27.75-2.69,33.57,3.58,4.48,4.48,4.03,21.93,4.03,27.75,0,8.95.45,18.35.45,27.3,4.03-.45,8.5-.9,12.53-.9,32.23-.45,64.46.9,96.69,1.34,1.34,0,2.69.45,3.58.45,3.13.45,4.03,2.69,3.58,4.92.45,2.24.45,8.06,0,11.64,35.81,0,57.74-.45,57.74-.45,17.46,0,17.46,26.86,0,26.86,0,0-21.93.45-58.64.45,0,14.32.45,28.65,1.79,42.97,3.58,41.63,6.71,83.26,6.27,124.89-.45,31.33-2.69,63.56,3.13,94,.45,3.13.9,7.16-.9,9.85-2.69,5.37-9.85,8.5-16.11,9.4-6.71.45-13.43,0-19.7-.45-12.53-.9-24.62,2.69-37.15,3.58-13.43.45-26.86-.45-40.73-.45-20.14.9-40.73,3.13-61.32,2.69ZM377.08,1385c-.9-16.56-1.34-33.12-7.16-48.34-2.69-8.06-12.53-16.56-19.25-22.38,9.4-6.71,17.01-16.11,19.7-26.41,3.58-11.64,9.85-45.66,5.82-56.85-1.79-5.37-5.37-8.5-11.19-8.95-6.71-.9-31.78-2.24-38.5.45-2.24.9-4.92,2.24-5.82,4.48-1.34,2.69-.9,5.82-.9,8.95.9,15.22,2.69,54.16-11.19,62.22-3.13,2.24-18.8,3.58-23.28,3.13-.45-8.06,2.69-63.11,1.79-71.17-.45-2.69-.9-6.27-3.13-8.5-1.79-1.79-5.37-2.69-8.5-2.69-12.09-.9-24.62-1.34-36.7.45-4.48.9-9.85,3.58-11.64,7.61-1.79,4.92,0,23.72.45,28.65,1.34,18.35.45,123.99,3.13,142.34,0,1.79.45,3.58,1.34,4.92,4.03,6.27,21.49,5.37,29.09,4.48,3.58,0,17.9-2.24,21.04-3.13,1.79-.45,3.58-1.34,4.48-2.69,1.34-2.69.9-5.82.9-8.95-1.34-16.56-2.24-45.21-2.69-61.77,29.1,0,28.2,8.5,31.33,21.04.45,3.58,3.58,29.1,3.58,32.23.9,10.29-1.34,21.49,8.95,24.17,8.06,1.79,34.02-.45,41.63-2.69,7.16-2.69,7.16-13.88,6.71-20.59Z" class="d"></path>
      <path d="M614.86,1524.21c-4.03-1.79-6.27-5.82-8.06-10.3-21.49-59.53-36.26-121.3-55.06-181.73-.45,0-.9-.45-.9-.9-.9-1.34-.45-2.69-.9-4.03-7.16-13.43-10.74-28.65-15.67-43.42-6.27-18.8-14.77-37.15-20.59-55.95-.9-3.58-1.34-7.61.9-10.74,1.79-2.24,5.37-3.13,8.5-4.03,17.01-4.92,34.02-8.95,50.58-14.32,12.98-4.03,25.51-8.95,38.94-12.98h-115.04c-14.77,0-14.77-26.86,0-26.86,17.46,0,183.08-3.13,206.35-3.13v-5.37c1.34-19.7,2.24-38.94,3.58-58.64.45-2.69.9-5.82,3.13-7.61-.9-4.03,2.69-6.71,6.71-7.16,10.74-.9,29.99-2.69,34.02,7.61,3.13,7.61,2.24,16.56,2.24,25.07-.45,10.74-.45,21.49-.9,32.23,8.95-2.24,16.11-3.58,25.51-6.27,1.34-.45,2.24-.9,3.58-.9,2.69-.45,4.48,1.79,4.92,3.58,1.34,2.69,3.13,11.64,4.03,13.88.45,2.24.9,4.03,1.34,6.27,41.63,0,117.28.45,117.28.45,17.46,0,17.46,26.86,0,26.86,0,0-68.93-.45-109.22-.9,3.13,10.74,7.16,21.04,11.19,31.33,15.67,38.5,30.89,77.44,42.97,117.28,8.5,30.44,15.67,61.32,30.44,89.08,1.34,2.69,2.69,6.27,2.24,9.4-1.34,6.27-7.16,11.64-13.43,13.88-5.82,2.69-12.09,4.03-18.35,5.37-12.09,2.69-22.83,9.85-34.47,14.32-12.98,4.48-26.41,7.61-38.94,11.64-19.7,6.71-38.5,14.77-57.74,20.59-28.65,8.5-57.74,15.67-85.94,23.72-4.92,1.34-18.8,4.92-23.28,2.69ZM748.25,1409.17c5.37-1.79,25.51-8.95,29.54-13.43,2.69-2.69,3.58-8.06,2.69-12.09-1.79-9.4-8.95-36.7-16.56-42.97-9.4-7.61-39.39,11.19-51.92,12.53-.9.45-1.34-1.79-1.79-2.69-8.06-20.59-11.19-42.52-16.11-64.01-1.34-5.82-8.06-38.05-10.29-43.87-.9-2.69-1.79-5.82-4.03-7.61-5.82-4.48-21.93,1.79-29.1,3.58-4.48.9-19.69,4.03-22.83,7.61-3.58,4.03-2.24,11.19-.45,16.56,5.82,22.38,13.88,43.87,20.59,65.8,1.79,6.71,12.53,48.79,14.32,55.95,2.24,8.06,9.4,32.23,16.56,37.15,4.03,2.69,9.85,3.13,15.22,2.24,18.35-3.58,36.26-8.95,54.16-14.77Z" class="d"></path>
      <path d="M1182.35,1480.79c-29.54-4.03-59.09-6.27-88.63-10.3-20.14-3.13-40.29-8.06-60.43-11.64-13.43-2.24-26.86-3.13-40.29-5.82-12.09-2.24-23.72-7.61-36.26-8.5-6.27-.45-12.98-.9-19.25-2.24-6.27-1.79-12.98-5.82-14.77-11.64-1.34-3.13-.45-6.71.45-9.85,10.29-29.54,12.53-61.32,16.56-92.66,5.37-41.18,14.77-81.91,24.17-122.65,1.34-6.27,2.69-12.98,4.03-19.25-37.15,0-59.53-.45-59.53-.45-17.46,0-17.46-26.86,0-26.86,0,0,24.17.45,64.01.45.9-6.71,1.79-13.43,2.24-20.14,0-2.69.45-11.19,1.79-14.32,0-2.24,1.34-4.48,4.03-4.48,1.34,0,2.69,0,3.58.45,32.23,4.03,64.01,7.16,95.79,12.09,4.48.45,8.5,1.79,12.98,2.69,1.34-8.95,2.69-17.46,4.03-26.41.9-7.61,2.69-25.07,9.85-28.2,8.06-3.13,17.46-1.34,25.51.45,5.82,1.34,12.98,3.58,11.19,9.4,1.79,1.79,1.79,4.92,1.79,7.61-1.79,15.67-3.58,30.89-5.37,46.55,2.69-.9,6.71-.9,8.95-.9,16.11,1.79,31.78,5.37,47.45,7.61,17.46,2.69,34.91,4.03,51.92,6.27,2.24,0,4.03.45,6.27.9h48.79c15.22,0,15.22,26.86,0,26.86h-46.1c-2.69,14.77-6.71,29.1-8.95,43.87-2.69,15.22-4.03,30.89-8.5,45.66-.45,1.34,0,2.69-.45,4.03,0,.45-.45.9-.9.9-8.95,62.67-14.77,126.23-26.41,188-.9,4.48-2.69,9.4-6.71,11.64-4.03,2.69-17.9,1.34-22.83.9ZM1145.64,1390.37c4.92-4.48,8.06-10.74,10.74-17.01,5.82-14.32,7.61-29.54,9.4-44.76,1.79-15.22,16.11-82.36,17.9-97.58.45-6.71-2.69-8.95-25.51-12.09-18.35-2.24-21.49-4.03-23.72,2.69-2.69,17.01-13.88,85.94-18.35,102.06-1.79,5.82-4.03,11.64-7.61,16.56-8.06,10.3-29.1,9.4-33.57-2.24-4.48-10.74,12.53-100.27,14.77-111.46.9-4.48,1.79-8.5,3.58-12.53.45-6.27-5.82-7.16-9.85-8.06-10.74-2.69-25.51-5.82-36.26-6.27-2.69-.45-5.82.9-7.16,4.48-3.58,17.46-17.9,86.39-20.59,103.85-2.69,17.9-5.82,36.7-1.79,54.16,1.79,7.61,6.27,14.77,12.53,19.7,8.5,7.16,20.14,10.3,30.89,12.53,14.32,2.69,20.59,4.48,34.91,5.82,9.4,1.34,18.8,2.24,28.2,1.34,8.06-.9,15.67-5.37,21.49-11.19Z" class="d"></path>
      <path d="M1393.18,1479.89c-3.58-2.24-5.37-7.16-6.27-11.64-12.09-61.77-17.46-125.33-26.86-188-.45,0-.45-.45-.9-.9,0-1.34.45-2.69,0-4.03-4.92-14.77-6.27-30.44-8.5-45.66-2.69-14.77-6.27-29.1-9.4-43.87h-46.1c-14.77,0-14.77-26.86,0-26.86h49.24c1.79-.45,4.03-.9,5.82-.9,17.46-2.24,34.91-3.58,51.92-6.27,16.11-2.24,31.78-5.82,47.45-7.61,2.24,0,5.82,0,8.5.45-1.79-15.22-3.13-30.44-4.48-45.66-.45-2.69-.9-5.82.9-7.61.45-.9,0-3.58.45-4.48,2.69-5.37,16.11-6.71,22.38-7.16,5.37-.45,12.53-.9,16.56,3.13,4.03,3.58,6.71,19.25,7.61,24.62,1.34,9.4,2.69,18.8,4.03,28.2h.45c4.03-.9,8.06-2.24,12.53-2.69,31.78-4.92,64.01-8.06,95.79-12.09,1.34-.45,2.24-.45,3.58-.45,2.69,0,4.48,2.24,4.03,4.48,1.34,3.13,1.79,11.64,1.79,14.32.9,6.71,1.34,13.43,2.24,20.14,39.84,0,64.01-.45,64.01-.45,17.46,0,17.46,26.86,0,26.86,0,0-22.38.45-59.53.45,1.34,6.27,2.69,12.98,4.03,19.25,9.4,40.73,18.8,81.47,24.17,122.65,4.48,31.33,6.71,63.11,16.56,92.66,1.34,3.13,1.79,6.71.9,9.85-2.24,5.82-8.95,9.85-15.22,11.64-6.27,1.34-12.98,1.79-19.25,2.24-12.53.9-24.17,6.27-36.26,8.5-12.98,2.69-26.86,3.58-40.29,5.82-20.14,3.58-39.84,8.5-60.43,11.64-29.1,4.03-59.09,6.27-88.18,10.3-4.92.45-19.25,1.79-23.28-.9ZM1560.14,1383.21c14.77-7.61,28.2-21.93,31.33-37.15,4.48-23.28-8.5-52.37-34.91-60.88,29.54-21.93,21.93-72.51-12.98-83.7-19.7-6.27-42.52-4.03-63.11-.9-7.16,1.34-40.29,6.71-46.55,9.4-3.58.9-7.61,3.13-8.95,6.27-2.69,5.37,2.69,24.17,4.03,29.99,7.16,39.84,16.56,92.21,23.72,132.05,1.79,7.61,1.34,17.46,8.06,22.38,6.27,4.48,27.75,0,36.26-.9,21.49-2.69,44.31-6.27,63.11-16.56ZM1508.66,1243.55c19.25.9,20.59,22.83,4.03,29.99-8.5,4.03-18.8,5.37-28.2,7.61-2.24-10.29-4.92-22.83-7.16-33.57,10.29-1.34,21.04-4.48,31.33-4.03ZM1492.55,1317.86c8.06-1.79,29.1-6.71,36.26-3.58,6.27,3.13,9.85,12.98,7.61,18.8-4.92,10.74-27.3,16.56-37.6,15.22-2.24-10.29-4.03-20.14-6.27-30.44Z" class="d"></path>
      <path d="M1779.83,1479.89c-3.58-2.24-5.37-7.16-6.27-11.64-12.09-61.77-17.46-125.33-26.86-188-.45,0-.45-.45-.9-.9,0-1.34.45-2.69,0-4.03-4.92-14.77-6.27-30.44-8.5-45.66-2.69-14.77-6.27-29.1-9.4-43.87h-46.1c-14.77,0-14.77-26.86,0-26.86h49.24c1.79-.45,4.03-.9,5.82-.9,17.46-2.24,34.91-3.58,51.92-6.27,16.11-2.24,31.78-5.82,47.45-7.61,2.24,0,5.82,0,8.5.45-1.79-15.22-3.13-30.44-4.48-45.66-.45-2.69-.9-5.82.9-7.61.45-.9,0-3.58.45-4.48,2.69-5.37,16.11-6.71,22.38-7.16,5.37-.45,12.53-.9,16.56,3.13,4.03,3.58,6.71,19.25,7.61,24.62,1.34,9.4,2.69,18.8,4.03,28.2h.45c4.03-.9,8.06-2.24,12.53-2.69,31.78-4.92,64.01-8.06,95.79-12.09,1.34-.45,2.24-.45,3.58-.45,2.69,0,4.48,2.24,4.03,4.48,1.34,3.13,1.79,11.64,1.79,14.32.9,6.71,1.34,13.43,2.24,20.14,39.84,0,64.01-.45,64.01-.45,17.46,0,17.46,26.86,0,26.86,0,0-22.38.45-59.53.45,1.34,6.27,2.69,12.98,4.03,19.25,9.4,40.73,18.8,81.47,24.17,122.65,4.48,31.33,6.71,63.11,16.56,92.66,1.34,3.13,1.79,6.71.9,9.85-2.24,5.82-8.95,9.85-15.22,11.64-6.27,1.34-12.98,1.79-19.25,2.24-12.53.9-24.17,6.27-36.26,8.5-12.98,2.69-26.86,3.58-40.29,5.82-20.14,3.58-39.84,8.5-60.43,11.64-29.09,4.03-59.08,6.27-88.18,10.3-4.92.45-19.25,1.79-23.28-.9ZM1946.79,1383.21c14.77-7.61,28.2-21.93,31.33-37.15,4.48-23.28-8.5-52.37-34.91-60.88,29.54-21.93,21.93-72.51-12.98-83.7-19.7-6.27-42.52-4.03-63.11-.9-7.16,1.34-40.29,6.71-46.55,9.4-3.58.9-7.61,3.13-8.95,6.27-2.69,5.37,2.69,24.17,4.03,29.99,7.16,39.84,16.56,92.21,23.72,132.05,1.79,7.61,1.34,17.46,8.06,22.38,6.27,4.48,27.75,0,36.26-.9,21.49-2.69,44.31-6.27,63.11-16.56ZM1895.31,1243.55c19.25.9,20.59,22.83,4.03,29.99-8.5,4.03-18.8,5.37-28.2,7.61-2.24-10.29-4.92-22.83-7.16-33.57,10.29-1.34,21.04-4.48,31.33-4.03ZM1879.2,1317.86c8.06-1.79,29.1-6.71,36.26-3.58,6.27,3.13,9.85,12.98,7.61,18.8-4.92,10.74-27.3,16.56-37.6,15.22-2.24-10.29-4.03-20.14-6.27-30.44Z" class="d"></path>
    </g>
  </g>
</svg>