<svg class="icon icon-spotify" viewBox="0 0 24 24"><path fill="currentColor" d="M12 2C6.477 2 2 6.477 2 12s4.477 10 10 10 10-4.477 10-10S17.523 2 12 2m4.586 14.424c-.18.295-.563.387-.857.207-2.35-1.434-5.305-1.76-8.786-.963-.335.077-.671-.133-.748-.469-.077-.336.132-.671.469-.748 3.809-.871 7.077-.496 9.713 1.115.294.18.386.563.207.857l.002.001zm1.223-2.723c-.226.367-.706.482-1.072.257-2.687-1.652-6.785-2.131-9.965-1.166-.414.127-.848-.106-.975-.52-.127-.414.106-.848.52-.975 3.632-1.102 8.147-.568 11.234 1.328.366.226.482.706.257 1.072l.001.004zm.105-2.835C14.692 8.95 9.375 8.775 6.297 9.71c-.493.15-1.016-.13-1.166-.624-.149-.493.13-1.016.624-1.166 3.532-1.073 9.404-.865 13.115 1.338.445.264.590.837.326 1.282-.264.444-.837.590-1.282.326z"/></svg>