<svg xmlns="http://www.w3.org/2000/svg" xmlns:xlink="http://www.w3.org/1999/xlink" width="192" zoomAndPan="magnify" viewBox="0 0 144 36.750001" height="49" preserveAspectRatio="xMidYMid meet" version="1.0"><defs><clipPath id="7d6639135f"><path d="M 0.488281 0 L 27 0 L 27 28 L 0.488281 28 Z M 0.488281 0 " clip-rule="nonzero"/></clipPath><clipPath id="5e1b1c9563"><path d="M 61 0 L 88 0 L 88 36.5 L 61 36.5 Z M 61 0 " clip-rule="nonzero"/></clipPath><clipPath id="e77462b627"><path d="M 92 0 L 119 0 L 119 36.5 L 92 36.5 Z M 92 0 " clip-rule="nonzero"/></clipPath><clipPath id="08c04df00f"><path d="M 121 0 L 143.511719 0 L 143.511719 28 L 121 28 Z M 121 0 " clip-rule="nonzero"/></clipPath></defs><g clip-path="url(#7d6639135f)"><path fill="#000000" d="M 7.566406 0.730469 L 13.683594 18.609375 L 19.808594 0.730469 L 26.886719 0.730469 L 16.328125 27.242188 L 11.046875 27.242188 L 0.488281 0.730469 Z M 7.566406 0.730469 " fill-opacity="1" fill-rule="nonzero"/></g><path fill="#000000" d="M 42.722656 23.054688 C 47.160156 23.054688 49.683594 20.894531 52.082031 17.773438 C 53.402344 16.09375 55.082031 15.734375 56.277344 16.691406 C 57.472656 17.644531 57.601562 19.445312 56.277344 21.125 C 52.796875 25.683594 48.363281 28.445312 42.722656 28.445312 C 36.605469 28.445312 31.207031 25.085938 27.484375 19.207031 C 26.402344 17.644531 26.648438 15.964844 27.84375 15.128906 C 29.046875 14.292969 30.847656 14.652344 31.921875 16.332031 C 34.558594 20.289062 38.160156 23.054688 42.722656 23.054688 Z M 50.996094 8.296875 C 50.996094 10.453125 49.316406 11.894531 47.398438 11.894531 C 45.476562 11.894531 43.796875 10.453125 43.796875 8.296875 C 43.796875 6.136719 45.476562 4.695312 47.398438 4.695312 C 49.316406 4.695312 50.996094 6.257812 50.996094 8.296875 Z M 50.996094 8.296875 " fill-opacity="1" fill-rule="nonzero"/><g clip-path="url(#5e1b1c9563)"><path fill="#000000" d="M 67.921875 0.730469 L 67.921875 4.328125 C 69.722656 1.8125 72.476562 0.0117188 76.5625 0.0117188 C 81.722656 0.0117188 87.722656 4.328125 87.722656 13.566406 C 87.722656 23.285156 81.964844 27.96875 75.964844 27.96875 C 72.84375 27.96875 69.96875 26.765625 67.808594 23.769531 L 67.808594 36.488281 L 61.328125 36.488281 L 61.328125 0.730469 L 67.929688 0.730469 Z M 67.921875 13.933594 C 67.921875 19.332031 71.042969 22.210938 74.523438 22.210938 C 78.003906 22.210938 81.246094 19.574219 81.246094 13.933594 C 81.246094 8.296875 77.886719 5.777344 74.523438 5.777344 C 71.164062 5.777344 67.921875 8.296875 67.921875 13.933594 Z M 67.921875 13.933594 " fill-opacity="1" fill-rule="nonzero"/></g><g clip-path="url(#e77462b627)"><path fill="#000000" d="M 99.117188 0.730469 L 99.117188 4.328125 C 100.917969 1.8125 103.683594 0.0117188 107.761719 0.0117188 C 112.921875 0.0117188 118.917969 4.328125 118.917969 13.566406 C 118.917969 23.285156 113.160156 27.96875 107.164062 27.96875 C 104.042969 27.96875 101.164062 26.765625 99.007812 23.769531 L 99.007812 36.488281 L 92.523438 36.488281 L 92.523438 0.730469 L 99.125 0.730469 Z M 99.117188 13.933594 C 99.117188 19.332031 102.242188 22.210938 105.722656 22.210938 C 109.203125 22.210938 112.445312 19.574219 112.445312 13.933594 C 112.445312 8.296875 109.082031 5.777344 105.722656 5.777344 C 102.359375 5.777344 99.117188 8.296875 99.117188 13.933594 Z M 99.117188 13.933594 " fill-opacity="1" fill-rule="nonzero"/></g><g clip-path="url(#08c04df00f)"><path fill="#000000" d="M 132.714844 0.0117188 C 138.113281 0.0117188 141.953125 2.527344 143.632812 8.773438 L 137.753906 9.738281 C 137.636719 6.613281 135.714844 5.539062 132.832031 5.539062 C 130.675781 5.539062 128.996094 6.503906 128.996094 8.054688 C 128.996094 9.257812 129.832031 10.453125 132.355469 10.9375 L 136.792969 11.777344 C 141.109375 12.613281 143.511719 15.496094 143.511719 19.332031 C 143.511719 25.09375 138.351562 27.976562 133.429688 27.976562 C 128.269531 27.976562 122.511719 25.339844 121.675781 18.855469 L 127.550781 17.890625 C 127.910156 21.253906 129.949219 22.449219 133.3125 22.449219 C 135.828125 22.449219 137.507812 21.484375 137.507812 19.929688 C 137.507812 18.488281 136.664062 17.414062 133.910156 16.929688 L 129.832031 16.210938 C 125.515625 15.375 122.871094 12.371094 122.871094 8.535156 C 122.988281 2.535156 128.390625 0.0117188 132.707031 0.0117188 Z M 132.714844 0.0117188 " fill-opacity="1" fill-rule="nonzero"/></g></svg>