<svg xmlns="http://www.w3.org/2000/svg" xmlns:xlink="http://www.w3.org/1999/xlink" width="48" zoomAndPan="magnify" viewBox="0 0 36 36.000001" height="48" preserveAspectRatio="xMidYMid meet" version="1.0"><defs><clipPath id="66760e14d3"><path d="M 0.488281 13.042969 L 7 13.042969 L 7 20 L 0.488281 20 Z M 0.488281 13.042969 " clip-rule="nonzero"/></clipPath><clipPath id="73d1ba2cc0"><path d="M 15 13.042969 L 22 13.042969 L 22 21.800781 L 15 21.800781 Z M 15 13.042969 " clip-rule="nonzero"/></clipPath><clipPath id="0237ab96a3"><path d="M 23 13.042969 L 30 13.042969 L 30 21.800781 L 23 21.800781 Z M 23 13.042969 " clip-rule="nonzero"/></clipPath><clipPath id="c4b2156e5f"><path d="M 30 13.042969 L 35.511719 13.042969 L 35.511719 20 L 30 20 Z M 30 13.042969 " clip-rule="nonzero"/></clipPath></defs><g clip-path="url(#66760e14d3)"><path fill="#000000" d="M 2.21875 13.222656 L 3.71875 17.601562 L 5.21875 13.222656 L 6.953125 13.222656 L 4.367188 19.714844 L 3.074219 19.714844 L 0.488281 13.222656 Z M 2.21875 13.222656 " fill-opacity="1" fill-rule="nonzero"/></g><path fill="#000000" d="M 10.828125 18.691406 C 11.917969 18.691406 12.535156 18.160156 13.121094 17.394531 C 13.445312 16.984375 13.855469 16.898438 14.148438 17.132812 C 14.441406 17.367188 14.472656 17.804688 14.148438 18.21875 C 13.296875 19.332031 12.210938 20.011719 10.828125 20.011719 C 9.332031 20.011719 8.007812 19.1875 7.097656 17.746094 C 6.832031 17.367188 6.894531 16.953125 7.1875 16.75 C 7.480469 16.542969 7.921875 16.632812 8.183594 17.042969 C 8.832031 18.011719 9.710938 18.691406 10.828125 18.691406 Z M 12.855469 15.074219 C 12.855469 15.605469 12.445312 15.957031 11.976562 15.957031 C 11.503906 15.957031 11.09375 15.605469 11.09375 15.074219 C 11.09375 14.546875 11.503906 14.195312 11.976562 14.195312 C 12.445312 14.195312 12.855469 14.574219 12.855469 15.074219 Z M 12.855469 15.074219 " fill-opacity="1" fill-rule="nonzero"/><g clip-path="url(#73d1ba2cc0)"><path fill="#000000" d="M 17 13.222656 L 17 14.105469 C 17.441406 13.488281 18.117188 13.046875 19.117188 13.046875 C 20.382812 13.046875 21.851562 14.105469 21.851562 16.367188 C 21.851562 18.746094 20.441406 19.894531 18.972656 19.894531 C 18.207031 19.894531 17.503906 19.597656 16.972656 18.863281 L 16.972656 21.980469 L 15.386719 21.980469 L 15.386719 13.222656 L 17.003906 13.222656 Z M 17 16.457031 C 17 17.777344 17.765625 18.484375 18.617188 18.484375 C 19.46875 18.484375 20.265625 17.835938 20.265625 16.457031 C 20.265625 15.074219 19.441406 14.457031 18.617188 14.457031 C 17.796875 14.457031 17 15.074219 17 16.457031 Z M 17 16.457031 " fill-opacity="1" fill-rule="nonzero"/></g><g clip-path="url(#0237ab96a3)"><path fill="#000000" d="M 24.640625 13.222656 L 24.640625 14.105469 C 25.082031 13.488281 25.757812 13.046875 26.757812 13.046875 C 28.023438 13.046875 29.492188 14.105469 29.492188 16.367188 C 29.492188 18.746094 28.082031 19.894531 26.613281 19.894531 C 25.847656 19.894531 25.144531 19.597656 24.613281 18.863281 L 24.613281 21.980469 L 23.027344 21.980469 L 23.027344 13.222656 L 24.644531 13.222656 Z M 24.640625 16.457031 C 24.640625 17.777344 25.40625 18.484375 26.257812 18.484375 C 27.109375 18.484375 27.90625 17.835938 27.90625 16.457031 C 27.90625 15.074219 27.082031 14.457031 26.257812 14.457031 C 25.433594 14.457031 24.640625 15.074219 24.640625 16.457031 Z M 24.640625 16.457031 " fill-opacity="1" fill-rule="nonzero"/></g><g clip-path="url(#c4b2156e5f)"><path fill="#000000" d="M 32.867188 13.046875 C 34.191406 13.046875 35.132812 13.664062 35.542969 15.191406 L 34.101562 15.429688 C 34.074219 14.664062 33.605469 14.402344 32.898438 14.402344 C 32.371094 14.402344 31.957031 14.636719 31.957031 15.015625 C 31.957031 15.3125 32.164062 15.605469 32.78125 15.722656 L 33.867188 15.925781 C 34.925781 16.132812 35.511719 16.839844 35.511719 17.777344 C 35.511719 19.1875 34.25 19.894531 33.042969 19.894531 C 31.78125 19.894531 30.371094 19.25 30.164062 17.660156 L 31.605469 17.425781 C 31.691406 18.25 32.191406 18.542969 33.015625 18.542969 C 33.632812 18.542969 34.042969 18.304688 34.042969 17.925781 C 34.042969 17.570312 33.835938 17.308594 33.160156 17.191406 L 32.164062 17.015625 C 31.105469 16.808594 30.457031 16.074219 30.457031 15.132812 C 30.488281 13.664062 31.808594 13.046875 32.867188 13.046875 Z M 32.867188 13.046875 " fill-opacity="1" fill-rule="nonzero"/></g></svg>